<?xml version="1.0" standalone="no"?>
<!DOCTYPE svg PUBLIC "-//W3C//DTD SVG 20010904//EN"
 "http://www.w3.org/TR/2001/REC-SVG-20010904/DTD/svg10.dtd">
<svg version="1.0" xmlns="http://www.w3.org/2000/svg"
 width="1338.000000pt" height="1342.000000pt" viewBox="0 0 1338.000000 1342.000000"
 preserveAspectRatio="xMidYMid meet">

<g transform="translate(0.000000,1342.000000) scale(0.100000,-0.100000)"
fill="#000000" stroke="none">
<path d="M6709 12420 c-604 -51 -1101 -235 -1509 -561 -205 -163 -344 -330
-445 -534 -113 -227 -149 -394 -149 -685 -1 -442 79 -706 364 -1205 149 -261
172 -276 420 -280 243 -4 395 -42 625 -154 435 -213 746 -489 1260 -1116 207
-252 334 -432 497 -705 57 -96 158 -258 224 -360 149 -228 208 -328 285 -482
33 -65 95 -174 138 -241 93 -146 108 -174 176 -338 29 -70 93 -201 143 -291
163 -296 329 -638 434 -893 51 -124 107 -225 156 -284 l29 -35 26 40 c24 36
97 197 96 210 -3 21 76 189 114 242 26 36 35 42 55 37 14 -3 75 -49 136 -102
456 -393 888 -620 1265 -663 215 -25 277 22 202 154 -55 99 -64 144 -59 300 5
174 22 216 86 216 9 0 68 -24 131 -54 135 -64 236 -98 375 -128 86 -19 133
-22 321 -22 192 0 233 2 325 22 58 13 109 27 114 33 6 5 -39 57 -120 136 -146
143 -445 508 -525 640 -27 44 -61 112 -75 150 -14 37 -48 105 -75 150 -164
270 -261 571 -288 888 -6 66 -11 296 -11 511 0 982 -85 1601 -305 2219 -108
303 -211 548 -340 805 -230 462 -444 766 -780 1109 -382 390 -678 606 -1148
837 -454 223 -913 361 -1397 419 -159 19 -616 28 -771 15z"/>
<path d="M1730 11709 c-409 -56 -625 -152 -865 -381 -178 -170 -289 -347 -341
-543 -24 -89 -27 -118 -27 -270 0 -153 2 -180 26 -270 55 -204 165 -384 338
-550 308 -296 759 -443 1207 -394 623 68 1043 392 1196 922 93 321 34 641
-168 914 -71 96 -237 258 -329 321 -214 147 -456 226 -772 252 -138 11 -175
11 -265 -1z"/>
<path d="M3611 8932 l-34 -7 62 -72 c34 -40 99 -104 144 -143 158 -138 268
-275 433 -541 132 -213 217 -392 328 -684 116 -309 160 -444 230 -711 110
-415 172 -741 241 -1264 19 -151 52 -394 71 -540 66 -495 73 -555 88 -735 24
-282 35 -510 51 -1070 8 -286 21 -588 30 -670 37 -352 110 -595 276 -915 189
-364 447 -652 748 -834 395 -239 875 -255 1291 -45 250 126 453 318 645 609
236 358 376 777 435 1295 12 105 31 231 42 280 52 229 58 264 58 360 -1 117
-8 154 -60 295 -21 58 -75 229 -119 381 -119 409 -137 458 -332 887 -66 145
-147 329 -181 410 -129 312 -202 449 -466 872 -434 696 -685 1026 -1107 1458
-755 774 -1514 1218 -2330 1363 -124 22 -471 35 -544 21z"/>
</g>
</svg>
